<svg width="28" height="28" viewBox="0 0 28 28" fill="none" xmlns="http://www.w3.org/2000/svg">
<path fill-rule="evenodd" clip-rule="evenodd" d="M25.6673 14C25.6673 20.4435 20.4442 25.6667 14.0007 25.6667C7.55715 25.6667 2.33398 20.4435 2.33398 14C2.33398 7.55654 7.55715 2.33337 14.0007 2.33337C20.4442 2.33337 25.6673 7.55654 25.6673 14ZM10.4657 10.465C10.6297 10.3012 10.8521 10.2091 11.084 10.2091C11.3159 10.2091 11.5383 10.3012 11.7023 10.465L14.0007 12.7634L16.299 10.465C16.4649 10.3105 16.6842 10.2263 16.9109 10.2303C17.1376 10.2343 17.3539 10.3262 17.5142 10.4865C17.6745 10.6468 17.7664 10.8631 17.7704 11.0898C17.7744 11.3164 17.6902 11.5358 17.5357 11.7017L15.2373 14L17.5357 16.2984C17.6902 16.4642 17.7744 16.6836 17.7704 16.9103C17.7664 17.137 17.6745 17.3533 17.5142 17.5136C17.3539 17.6739 17.1376 17.7657 16.9109 17.7697C16.6842 17.7737 16.4649 17.6896 16.299 17.535L14.0007 15.2367L11.7023 17.535C11.5364 17.6896 11.3171 17.7737 11.0904 17.7697C10.8637 17.7657 10.6474 17.6739 10.4871 17.5136C10.3268 17.3533 10.2349 17.137 10.2309 16.9103C10.2269 16.6836 10.3111 16.4642 10.4657 16.2984L12.764 14L10.4657 11.7017C10.3018 11.5376 10.2098 11.3152 10.2098 11.0834C10.2098 10.8515 10.3018 10.6291 10.4657 10.465Z" fill="white"/>
</svg>
