<svg width="127" height="41" viewBox="0 0 127 41" fill="none" xmlns="http://www.w3.org/2000/svg">
<g clip-path="url(#clip0_101_2)">
<path d="M40.9515 33.2474C40.3797 33.2474 39.8539 33.1477 39.374 32.9483C38.889 32.7542 38.4704 32.4814 38.1181 32.1299C37.7658 31.7784 37.4901 31.3639 37.291 30.8865C37.097 30.4091 37 29.887 37 29.3204C37 28.7538 37.097 28.2318 37.291 27.7544C37.4901 27.277 37.7684 26.8625 38.1258 26.511C38.4831 26.1595 38.9018 25.8867 39.3817 25.6926C39.8667 25.4984 40.3951 25.4014 40.9668 25.4014C41.5386 25.4014 42.0619 25.4932 42.5367 25.6768C43.0115 25.8604 43.4174 26.1385 43.7543 26.511L43.2566 27.0304C42.9452 26.7051 42.6005 26.4743 42.2228 26.3379C41.8399 26.1962 41.4314 26.1254 40.9975 26.1254C40.5329 26.1254 40.1066 26.2041 39.7186 26.3615C39.3255 26.5189 38.986 26.7445 38.7001 27.0383C38.4091 27.3268 38.1819 27.6626 38.0185 28.0456C37.8603 28.4338 37.7811 28.8588 37.7811 29.3204C37.7811 29.7769 37.8603 30.1992 38.0185 30.5874C38.1819 30.9757 38.4091 31.3167 38.7001 31.6105C38.986 31.899 39.3255 32.122 39.7186 32.2794C40.1066 32.4368 40.5303 32.5155 40.9898 32.5155C41.4187 32.5155 41.8245 32.4499 42.2074 32.3187C42.5852 32.1876 42.9349 31.9646 43.2566 31.6498L43.7084 32.2637C43.351 32.5889 42.9324 32.8329 42.4525 32.9955C41.9777 33.1634 41.4774 33.2474 40.9515 33.2474ZM43.7084 32.2637L42.9503 32.1614V29.3204H43.7084V32.2637ZM46.4423 33.1765H45.6841V27.3924H46.4116V28.9663L46.3351 28.6909C46.4933 28.2502 46.7588 27.9144 47.1315 27.6836C47.5042 27.4527 47.9637 27.3373 48.5099 27.3373V28.1007C48.4844 28.1007 48.4563 28.098 48.4257 28.0928C48.4002 28.0875 48.3721 28.0849 48.3414 28.0849C47.7492 28.0849 47.2847 28.2712 46.9477 28.6437C46.6108 29.0161 46.4423 29.5434 46.4423 30.2254V33.1765ZM53.6254 33.1765H52.8979V31.9017L52.8673 31.6892V29.5565C52.8673 29.0634 52.732 28.683 52.4614 28.4154C52.1959 28.1531 51.7977 28.022 51.2668 28.022C50.9043 28.022 50.5571 28.0849 50.2253 28.2108C49.8986 28.3367 49.6203 28.502 49.3906 28.7066L49.046 28.1243C49.3319 27.8724 49.6765 27.6783 50.0798 27.5419C50.478 27.4055 50.8992 27.3373 51.3434 27.3373C52.0734 27.3373 52.635 27.5236 53.0281 27.896C53.4263 28.2685 53.6254 28.8325 53.6254 29.588V33.1765ZM50.9605 33.2316C50.5367 33.2316 50.1691 33.1608 49.8577 33.0191C49.5463 32.8775 49.3089 32.6781 49.1455 32.4211C48.9822 32.1692 48.9005 31.878 48.9005 31.5475C48.9005 31.2485 48.9694 30.9757 49.1072 30.7291C49.2451 30.4825 49.4748 30.2831 49.7965 30.131C50.113 29.9789 50.5393 29.9028 51.0753 29.9028H53.0128V30.493H51.0983C50.552 30.493 50.1742 30.5901 49.9649 30.7842C49.7556 30.9835 49.651 31.2301 49.651 31.5239C49.651 31.8544 49.776 32.1194 50.0262 32.3187C50.2764 32.5181 50.6261 32.6178 51.0753 32.6178C51.5042 32.6178 51.8743 32.5155 52.1857 32.3109C52.4972 32.1115 52.7243 31.8203 52.8673 31.4374L53.0358 31.9804C52.8928 32.3581 52.6452 32.6624 52.2929 32.8932C51.9407 33.1188 51.4965 33.2316 50.9605 33.2316ZM58.4959 33.2316C58.0109 33.2316 57.5718 33.1162 57.1787 32.8854C56.7856 32.6545 56.4716 32.3214 56.2368 31.8859C56.007 31.4452 55.8922 30.9101 55.8922 30.2805C55.8922 29.651 56.0045 29.1158 56.2291 28.6751C56.4589 28.2397 56.7703 27.9092 57.1634 27.6836C57.5565 27.4527 58.0007 27.3373 58.4959 27.3373C59.0319 27.3373 59.5118 27.4606 59.9356 27.7072C60.3593 27.9538 60.6937 28.3 60.9388 28.746C61.1838 29.1867 61.3063 29.6982 61.3063 30.2805C61.3063 30.8681 61.1838 31.3823 60.9388 31.823C60.6937 32.2637 60.3593 32.6099 59.9356 32.8617C59.5118 33.1083 59.0319 33.2316 58.4959 33.2316ZM56.3517 35.3171H55.5859V27.3924H56.321V29.1316L56.2444 30.2884L56.3517 31.461V35.3171ZM58.4423 32.5391C58.8405 32.5391 59.1979 32.4447 59.5144 32.2558C59.8258 32.0722 60.076 31.8098 60.2649 31.4688C60.4487 31.1226 60.5405 30.7265 60.5405 30.2805C60.5405 29.8346 60.4487 29.4411 60.2649 29.1001C60.076 28.7643 59.8258 28.4994 59.5144 28.3053C59.1979 28.1164 58.8405 28.022 58.4423 28.022C58.039 28.022 57.679 28.1164 57.3625 28.3053C57.046 28.4994 56.7958 28.7643 56.612 29.1001C56.4282 29.4411 56.3363 29.8346 56.3363 30.2805C56.3363 30.7265 56.4282 31.1226 56.612 31.4688C56.7958 31.8098 57.046 32.0722 57.3625 32.2558C57.679 32.4447 58.039 32.5391 58.4423 32.5391ZM65.6254 27.3373C66.0798 27.3373 66.4806 27.4265 66.8277 27.6049C67.1749 27.7885 67.448 28.0639 67.6471 28.4312C67.8411 28.7984 67.9381 29.2601 67.9381 29.8162V33.1765H67.18V29.8949C67.18 29.2863 67.0319 28.8247 66.7358 28.5099C66.4397 28.2003 66.0236 28.0456 65.4876 28.0456C65.0843 28.0456 64.7346 28.1269 64.4384 28.2895C64.1423 28.4574 63.9126 28.6961 63.7492 29.0057C63.591 29.3204 63.5118 29.6982 63.5118 30.1389V33.1765H62.7537V25H63.5118V28.982L63.3587 28.683C63.5374 28.2633 63.8233 27.9354 64.2164 27.6993C64.6095 27.458 65.0792 27.3373 65.6254 27.3373ZM70.649 33.1765H69.8909V27.3924H70.649V33.1765ZM70.2738 26.1175C70.1206 26.1175 69.9904 26.0624 69.8832 25.9523C69.776 25.8421 69.7224 25.7083 69.7224 25.5509C69.7224 25.3988 69.776 25.2702 69.8832 25.1653C69.9904 25.0551 70.1206 25 70.2738 25C70.4321 25 70.5648 25.0525 70.672 25.1574C70.7792 25.2624 70.8328 25.3909 70.8328 25.543C70.8328 25.7057 70.7818 25.8421 70.6797 25.9523C70.5776 26.0624 70.4423 26.1175 70.2738 26.1175ZM76.1091 33.2474C75.5425 33.2474 75.0192 33.1477 74.5393 32.9483C74.0543 32.7542 73.6356 32.4788 73.2834 32.122C72.9311 31.7705 72.6554 31.356 72.4563 30.8786C72.2623 30.4064 72.1653 29.887 72.1653 29.3204C72.1653 28.7538 72.2623 28.2344 72.4563 27.7623C72.6554 27.2901 72.9311 26.8756 73.2834 26.5189C73.6356 26.1621 74.0517 25.8867 74.5316 25.6926C75.0115 25.4984 75.5374 25.4014 76.1091 25.4014C76.6758 25.4014 77.1966 25.4984 77.6714 25.6926C78.1513 25.8867 78.5673 26.1595 78.9196 26.511C79.277 26.8625 79.5527 27.277 79.7467 27.7544C79.9458 28.2318 80.0453 28.7538 80.0453 29.3204C80.0453 29.887 79.9458 30.4091 79.7467 30.8865C79.5527 31.3639 79.277 31.7784 78.9196 32.1299C78.5673 32.4814 78.1513 32.7542 77.6714 32.9483C77.1966 33.1477 76.6758 33.2474 76.1091 33.2474ZM78.5673 34.7111C78.3376 34.7111 78.1155 34.6822 77.9011 34.6245C77.6867 34.5616 77.4697 34.4671 77.2502 34.3412C77.0307 34.2101 76.8086 34.0422 76.5839 33.8376C76.3542 33.633 76.104 33.3838 75.8335 33.09L76.6988 32.8696C76.9183 33.1424 77.1353 33.3654 77.3497 33.5385C77.559 33.7169 77.7658 33.8481 77.97 33.932C78.1742 34.016 78.3759 34.0579 78.575 34.0579C79.1315 34.0579 79.6063 33.8245 79.9994 33.3575L80.3899 33.8297C79.9151 34.4173 79.3076 34.7111 78.5673 34.7111ZM76.1091 32.5155C76.5584 32.5155 76.9745 32.4368 77.3574 32.2794C77.7403 32.122 78.0721 31.8964 78.3529 31.6026C78.6388 31.3088 78.8583 30.9678 79.0115 30.5796C79.1698 30.1966 79.2489 29.7769 79.2489 29.3204C79.2489 28.8588 79.1698 28.4338 79.0115 28.0456C78.8583 27.6626 78.6388 27.3268 78.3529 27.0383C78.0721 26.7445 77.7403 26.5189 77.3574 26.3615C76.9745 26.2041 76.5584 26.1254 76.1091 26.1254C75.6599 26.1254 75.2412 26.2041 74.8532 26.3615C74.4703 26.5189 74.1359 26.7445 73.85 27.0383C73.5693 27.3268 73.3472 27.6626 73.1838 28.0456C73.0255 28.4338 72.9464 28.8588 72.9464 29.3204C72.9464 29.7769 73.0255 30.1966 73.1838 30.5796C73.3472 30.9678 73.5693 31.3088 73.85 31.6026C74.1359 31.8964 74.4703 32.122 74.8532 32.2794C75.2412 32.4368 75.6599 32.5155 76.1091 32.5155ZM86.7154 33.1765H81.7148V25.4643H82.5112V32.4761H86.7154V33.1765Z" fill="black"/>
<path d="M37.9952 20.2479H37V10.5825H37.8188L44.3103 18.975H43.8778V10.5825H44.8604V20.2479H44.0416L37.5627 11.8511H37.9952V20.2479ZM50.7178 20.317C49.9844 20.317 49.3392 20.1573 48.7821 19.838C48.2279 19.5216 47.794 19.0843 47.4805 18.5263C47.167 17.9711 47.0102 17.3339 47.0102 16.6148C47.0102 15.8956 47.16 15.2599 47.4595 14.7076C47.759 14.1552 48.1705 13.7209 48.694 13.4044C49.2202 13.088 49.8095 12.9298 50.4617 12.9298C51.1251 12.9298 51.7144 13.0837 52.2294 13.3915C52.7445 13.6993 53.1504 14.1322 53.4471 14.6903C53.741 15.2455 53.888 15.887 53.888 16.6148C53.888 16.6608 53.8866 16.7097 53.8838 16.7615C53.8782 16.8104 53.8754 16.8621 53.8754 16.9168H47.7366V16.1876H53.3631L52.9894 16.4767C52.9894 15.9531 52.8789 15.4857 52.6577 15.0743C52.4394 14.6658 52.1427 14.3465 51.7676 14.1164C51.3896 13.8863 50.9544 13.7712 50.4617 13.7712C49.9774 13.7712 49.5435 13.8863 49.16 14.1164C48.7737 14.3465 48.4728 14.6687 48.2573 15.0829C48.0445 15.4972 47.9382 15.9704 47.9382 16.5026V16.6579C47.9382 17.2102 48.0557 17.6949 48.2909 18.112C48.5288 18.532 48.8605 18.8585 49.286 19.0915C49.7115 19.3274 50.1972 19.4454 50.743 19.4454C51.1741 19.4454 51.5758 19.3677 51.9481 19.2123C52.3204 19.0541 52.6409 18.8139 52.9097 18.4917L53.4471 19.126C53.1336 19.5144 52.7417 19.8092 52.2714 20.0106C51.8011 20.2148 51.2833 20.317 50.7178 20.317ZM55.6347 20.2479H54.5598L57.5452 16.2696L57.5284 16.7528L54.6942 12.9988H55.7691L58.0953 16.1056L57.6922 16.0883L60.0142 12.9988H61.0639L58.2003 16.796L58.2171 16.2696L61.2235 20.2479H60.136L57.6796 16.9341L58.0533 16.9858L55.6347 20.2479ZM65.0403 20.317C64.3768 20.317 63.866 20.1329 63.5077 19.7647C63.1494 19.3964 62.9702 18.8758 62.9702 18.2026V11.3937H63.9276V18.1466C63.9276 18.5694 64.0325 18.8959 64.2425 19.126C64.4524 19.3562 64.7547 19.4712 65.1494 19.4712C65.5693 19.4712 65.9178 19.3475 66.195 19.1002L66.5309 19.8035C66.3433 19.979 66.118 20.1084 65.8548 20.1918C65.5889 20.2753 65.3174 20.317 65.0403 20.317ZM66.0774 13.81H61.7105V12.9988H66.0774V13.81ZM69.3525 16.1444V15.2599H74.324V16.1444H69.3525ZM69.4617 11.4627V20.2479H68.4666V10.5825H74.9161V11.4627H69.4617ZM77.7251 20.2479H76.772V12.9988H77.7251V20.2479ZM77.2548 11.3937C77.0589 11.3937 76.8937 11.3246 76.7594 11.1866C76.625 11.0485 76.5578 10.8831 76.5578 10.6903C76.5578 10.4976 76.625 10.3351 76.7594 10.2028C76.8937 10.0676 77.0589 10 77.2548 10C77.4508 10 77.616 10.0647 77.7503 10.1941C77.8847 10.3236 77.9519 10.4847 77.9519 10.6774C77.9519 10.8788 77.8875 11.0485 77.7587 11.1866C77.6299 11.3246 77.462 11.3937 77.2548 11.3937ZM81.3404 20.2479H80.3872V12.9988H81.2984V14.9708L81.206 14.6256C81.402 14.0733 81.7337 13.6518 82.2011 13.3613C82.6658 13.0736 83.2425 12.9298 83.9311 12.9298V13.8791C83.8975 13.8791 83.8625 13.8776 83.8261 13.8748C83.7897 13.869 83.7533 13.8661 83.717 13.8661C82.9751 13.8661 82.3929 14.0991 81.9702 14.5652C81.5503 15.0283 81.3404 15.6885 81.3404 16.5457V20.2479ZM88.5961 20.317C87.8599 20.317 87.2146 20.1573 86.6604 19.838C86.1061 19.5216 85.6722 19.0843 85.3587 18.5263C85.0452 17.9711 84.8884 17.3339 84.8884 16.6148C84.8884 15.8956 85.0382 15.2599 85.3377 14.7076C85.6372 14.1552 86.0487 13.7209 86.5722 13.4044C87.0957 13.088 87.6849 12.9298 88.3399 12.9298C89.0034 12.9298 89.5926 13.0837 90.1077 13.3915C90.6227 13.6993 91.0272 14.1322 91.3212 14.6903C91.6179 15.2455 91.7662 15.887 91.7662 16.6148C91.7662 16.6608 91.7634 16.7097 91.7578 16.7615C91.755 16.8104 91.7536 16.8621 91.7536 16.9168H85.6106V16.1876H91.2414L90.8677 16.4767C90.8677 15.9531 90.7571 15.4857 90.536 15.0743C90.3176 14.6658 90.0195 14.3465 89.6416 14.1164C89.2665 13.8863 88.8326 13.7712 88.3399 13.7712C87.8557 13.7712 87.4218 13.8863 87.0383 14.1164C86.652 14.3465 86.3511 14.6687 86.1355 15.0829C85.92 15.4972 85.8122 15.9704 85.8122 16.5026V16.6579C85.8122 17.2102 85.9312 17.6949 86.1691 18.112C86.407 18.532 86.7388 18.8585 87.1642 19.0915C87.5897 19.3274 88.0754 19.4454 88.6213 19.4454C89.0523 19.4454 89.454 19.3677 89.8263 19.2123C90.1958 19.0541 90.515 18.8139 90.7837 18.4917L91.3212 19.126C91.0076 19.5144 90.6157 19.8092 90.1455 20.0106C89.6752 20.2148 89.1587 20.317 88.5961 20.317ZM95.4193 20.2479H94.4283V11.4627H91.1196V10.5825H98.728V11.4627H95.4193V20.2479ZM102.368 20.317C101.632 20.317 100.987 20.1573 100.433 19.838C99.8785 19.5216 99.4446 19.0843 99.1311 18.5263C98.8176 17.9711 98.6608 17.3339 98.6608 16.6148C98.6608 15.8956 98.8106 15.2599 99.1101 14.7076C99.4096 14.1552 99.8211 13.7209 100.345 13.4044C100.868 13.088 101.457 12.9298 102.112 12.9298C102.776 12.9298 103.365 13.0837 103.88 13.3915C104.395 13.6993 104.8 14.1322 105.094 14.6903C105.39 15.2455 105.539 15.887 105.539 16.6148C105.539 16.6608 105.536 16.7097 105.53 16.7615C105.527 16.8104 105.526 16.8621 105.526 16.9168H99.383V16.1876H105.014L104.64 16.4767C104.64 15.9531 104.53 15.4857 104.308 15.0743C104.09 14.6658 103.792 14.3465 103.414 14.1164C103.039 13.8863 102.605 13.7712 102.112 13.7712C101.628 13.7712 101.194 13.8863 100.811 14.1164C100.424 14.3465 100.123 14.6687 99.9079 15.0829C99.6924 15.4972 99.5846 15.9704 99.5846 16.5026V16.6579C99.5846 17.2102 99.7035 17.6949 99.9415 18.112C100.179 18.532 100.511 18.8585 100.937 19.0915C101.362 19.3274 101.848 19.4454 102.394 19.4454C102.825 19.4454 103.226 19.3677 103.599 19.2123C103.968 19.0541 104.287 18.8139 104.556 18.4917L105.094 19.126C104.78 19.5144 104.388 19.8092 103.918 20.0106C103.448 20.2148 102.931 20.317 102.368 20.317ZM112.618 20.2479H111.706V18.6428L111.664 18.3839V15.7043C111.664 15.0858 111.496 14.6112 111.161 14.2804C110.825 13.9496 110.325 13.7842 109.662 13.7842C109.205 13.7842 108.771 13.8618 108.36 14.0172C107.948 14.1754 107.598 14.3825 107.31 14.6385L106.882 13.9093C107.24 13.5957 107.67 13.3541 108.171 13.1844C108.672 13.0147 109.201 12.9298 109.758 12.9298C110.671 12.9298 111.376 13.1614 111.874 13.6245C112.37 14.0905 112.618 14.7967 112.618 15.7431V20.2479ZM109.275 20.317C108.746 20.317 108.287 20.2264 107.898 20.0451C107.506 19.8668 107.208 19.6179 107.004 19.2986C106.796 18.9822 106.693 18.6169 106.693 18.2026C106.693 17.8258 106.781 17.4835 106.957 17.1757C107.131 16.865 107.417 16.6162 107.814 16.4292C108.214 16.2394 108.75 16.1444 109.422 16.1444H111.853V16.878H109.447C108.767 16.878 108.295 17.0017 108.032 17.249C107.766 17.4993 107.633 17.8086 107.633 18.1768C107.633 18.591 107.79 18.9218 108.104 19.1692C108.417 19.4166 108.857 19.5403 109.422 19.5403C109.96 19.5403 110.423 19.4137 110.812 19.1606C111.201 18.9074 111.485 18.5421 111.664 18.0646L111.879 18.742C111.699 19.2195 111.389 19.6007 110.946 19.8855C110.504 20.1731 109.947 20.317 109.275 20.317ZM124.026 12.9298C124.6 12.9298 125.099 13.042 125.525 13.2664C125.95 13.4907 126.282 13.8331 126.52 14.2933C126.758 14.7536 126.877 15.3347 126.877 16.0366V20.2479H125.92V16.1315C125.92 15.3663 125.743 14.7881 125.391 14.3969C125.038 14.0057 124.538 13.81 123.892 13.81C123.407 13.81 122.989 13.9136 122.636 14.1207C122.283 14.3278 122.01 14.627 121.817 15.0182C121.624 15.4094 121.528 15.8812 121.528 16.4335V20.2479H120.574V16.1315C120.574 15.3663 120.395 14.7881 120.037 14.3969C119.679 14.0057 119.176 13.81 118.53 13.81C118.057 13.81 117.641 13.9136 117.283 14.1207C116.924 14.3278 116.648 14.627 116.455 15.0182C116.262 15.4094 116.166 15.8812 116.166 16.4335V20.2479H115.212V12.9988H116.128V14.9578L115.977 14.6126C116.192 14.0891 116.539 13.6777 117.018 13.3786C117.499 13.0794 118.066 12.9298 118.719 12.9298C119.41 12.9298 119.996 13.1067 120.478 13.4605C120.962 13.8144 121.276 14.3451 121.418 15.0527L121.045 14.9017C121.249 14.312 121.614 13.8359 122.141 13.4735C122.664 13.111 123.293 12.9298 124.026 12.9298Z" fill="black"/>
<path d="M29 25.9494C29 34.2616 22.5081 41 14.5 41C6.49187 41 0 34.2616 0 25.9494C0 17.6371 6.5 6.22785 17.5 0C14.5 10.3797 29 17.6371 29 25.9494Z" fill="#FB552A"/>
<path d="M29 25.9494C29 34.2616 22.5081 41 14.5 41C6.49187 41 0 34.2616 0 25.9494C0 17.6371 13.5 18.1646 17.5 0C14.5 10.3797 29 17.6371 29 25.9494Z" fill="url(#paint0_linear_101_2)"/>
<path d="M29 25.9494C29 34.2616 22.5081 41 14.5 41C6.49187 41 0 34.2616 0 25.9494C0 17.6371 6.5 6.22785 17.5 0C14.5 10.3797 29 17.6371 29 25.9494Z" fill="#FB552A"/>
<path d="M29 25.9494C29 34.2616 22.5081 41 14.5 41C6.49187 41 0 34.2616 0 25.9494C0 17.6371 13.5 18.1646 17.5 0C14.5 10.3797 29 17.6371 29 25.9494Z" fill="url(#paint1_linear_101_2)"/>
<path d="M24 26.5C24 31.7467 19.7467 36 14.5 36C9.25329 36 5 31.7467 5 26.5C5 21.2533 9.25329 17 14.5 17C19.7467 17 24 21.2533 24 26.5Z" fill="url(#paint2_linear_101_2)"/>
<circle cx="14.5" cy="26.5" r="7.5" fill="white"/>
</g>
<defs>
<linearGradient id="paint0_linear_101_2" x1="24" y1="33.2152" x2="22.3848" y2="15.0609" gradientUnits="userSpaceOnUse">
<stop stop-color="#DC1379"/>
<stop offset="1" stop-color="#FC7A22"/>
</linearGradient>
<linearGradient id="paint1_linear_101_2" x1="24" y1="33.2152" x2="22.3848" y2="15.0609" gradientUnits="userSpaceOnUse">
<stop stop-color="#DC1379"/>
<stop offset="1" stop-color="#FC7A22"/>
</linearGradient>
<linearGradient id="paint2_linear_101_2" x1="17.5" y1="29" x2="16" y2="20.5" gradientUnits="userSpaceOnUse">
<stop stop-color="#BC0F6D"/>
<stop offset="1" stop-color="#F5173A"/>
</linearGradient>
<clipPath id="clip0_101_2">
<rect width="127" height="41" fill="white"/>
</clipPath>
</defs>
</svg>
