<svg width="121" height="41" viewBox="0 0 121 41" fill="none" xmlns="http://www.w3.org/2000/svg">
<g clip-path="url(#clip0_209_48)">
<path d="M35.0741 36.8748C34.5023 36.8748 33.9765 36.7751 33.4966 36.5757C33.0116 36.3816 32.593 36.1088 32.2407 35.7573C31.8884 35.4058 31.6127 34.9913 31.4136 34.5139C31.2196 34.0365 31.1226 33.5144 31.1226 32.9478C31.1226 32.3812 31.2196 31.8592 31.4136 31.3818C31.6127 30.9044 31.891 30.4899 32.2484 30.1384C32.6057 29.7869 33.0244 29.5141 33.5043 29.32C33.9893 29.1258 34.5177 29.0288 35.0894 29.0288C35.6612 29.0288 36.1845 29.1206 36.6593 29.3042C37.1341 29.4878 37.54 29.7659 37.8769 30.1384L37.3792 30.6578C37.0678 30.3325 36.7231 30.1017 36.3454 29.9653C35.9625 29.8236 35.554 29.7528 35.1201 29.7528C34.6555 29.7528 34.2292 29.8315 33.8412 29.9889C33.4481 30.1463 33.1086 30.3719 32.8227 30.6657C32.5317 30.9542 32.3045 31.29 32.1411 31.673C31.9829 32.0612 31.9037 32.4862 31.9037 32.9478C31.9037 33.4043 31.9829 33.8266 32.1411 34.2148C32.3045 34.6031 32.5317 34.9441 32.8227 35.2379C33.1086 35.5264 33.4481 35.7494 33.8412 35.9068C34.2292 36.0642 34.6529 36.1429 35.1124 36.1429C35.5413 36.1429 35.9471 36.0773 36.33 35.9461C36.7078 35.815 37.0575 35.592 37.3792 35.2772L37.831 35.8911C37.4736 36.2163 37.055 36.4603 36.5751 36.6229C36.1003 36.7908 35.6 36.8748 35.0741 36.8748ZM37.831 35.8911L37.0729 35.7888V32.9478H37.831V35.8911ZM40.5649 36.8039H39.8067V31.0198H40.5342V32.5937L40.4577 32.3183C40.6159 31.8776 40.8814 31.5418 41.2541 31.311C41.6268 31.0801 42.0863 30.9647 42.6325 30.9647V31.7281C42.607 31.7281 42.5789 31.7254 42.5483 31.7202C42.5228 31.7149 42.4947 31.7123 42.464 31.7123C41.8718 31.7123 41.4073 31.8986 41.0703 32.2711C40.7334 32.6435 40.5649 33.1708 40.5649 33.8528V36.8039ZM47.748 36.8039H47.0205V35.5291L46.9899 35.3166V33.1839C46.9899 32.6908 46.8546 32.3104 46.584 32.0428C46.3185 31.7805 45.9203 31.6494 45.3894 31.6494C45.0269 31.6494 44.6797 31.7123 44.3479 31.8382C44.0212 31.9641 43.7429 32.1294 43.5132 32.334L43.1686 31.7517C43.4545 31.4998 43.7991 31.3057 44.2024 31.1693C44.6006 31.0329 45.0218 30.9647 45.466 30.9647C46.196 30.9647 46.7576 31.151 47.1507 31.5234C47.5489 31.8959 47.748 32.4599 47.748 33.2154V36.8039ZM45.0831 36.859C44.6593 36.859 44.2917 36.7882 43.9803 36.6465C43.6689 36.5049 43.4315 36.3055 43.2681 36.0485C43.1048 35.7966 43.0231 35.5054 43.0231 35.1749C43.0231 34.8759 43.092 34.6031 43.2298 34.3565C43.3677 34.1099 43.5974 33.9105 43.9191 33.7584C44.2356 33.6063 44.6619 33.5302 45.1979 33.5302H47.1354V34.1204H45.2209C44.6746 34.1204 44.2968 34.2175 44.0875 34.4116C43.8782 34.6109 43.7736 34.8575 43.7736 35.1513C43.7736 35.4818 43.8986 35.7468 44.1488 35.9461C44.399 36.1455 44.7487 36.2452 45.1979 36.2452C45.6268 36.2452 45.9969 36.1429 46.3083 35.9383C46.6198 35.7389 46.8469 35.4477 46.9899 35.0648L47.1584 35.6078C47.0154 35.9855 46.7678 36.2898 46.4155 36.5206C46.0633 36.7462 45.6191 36.859 45.0831 36.859ZM52.6185 36.859C52.1335 36.859 51.6944 36.7436 51.3013 36.5128C50.9082 36.2819 50.5942 35.9488 50.3594 35.5133C50.1296 35.0726 50.0148 34.5375 50.0148 33.9079C50.0148 33.2784 50.1271 32.7432 50.3517 32.3025C50.5815 31.8671 50.8929 31.5366 51.286 31.311C51.6791 31.0801 52.1233 30.9647 52.6185 30.9647C53.1545 30.9647 53.6344 31.088 54.0582 31.3346C54.4819 31.5812 54.8163 31.9274 55.0614 32.3734C55.3064 32.8141 55.4289 33.3256 55.4289 33.9079C55.4289 34.4955 55.3064 35.0097 55.0614 35.4504C54.8163 35.8911 54.4819 36.2373 54.0582 36.4891C53.6344 36.7357 53.1545 36.859 52.6185 36.859ZM50.4743 38.9445H49.7085V31.0198H50.4436V32.759L50.367 33.9158L50.4743 35.0884V38.9445ZM52.5649 36.1665C52.9631 36.1665 53.3205 36.0721 53.637 35.8832C53.9484 35.6996 54.1986 35.4372 54.3875 35.0962C54.5713 34.75 54.6631 34.3539 54.6631 33.9079C54.6631 33.462 54.5713 33.0685 54.3875 32.7275C54.1986 32.3917 53.9484 32.1268 53.637 31.9327C53.3205 31.7438 52.9631 31.6494 52.5649 31.6494C52.1616 31.6494 51.8016 31.7438 51.4851 31.9327C51.1686 32.1268 50.9184 32.3917 50.7346 32.7275C50.5508 33.0685 50.4589 33.462 50.4589 33.9079C50.4589 34.3539 50.5508 34.75 50.7346 35.0962C50.9184 35.4372 51.1686 35.6996 51.4851 35.8832C51.8016 36.0721 52.1616 36.1665 52.5649 36.1665ZM59.748 30.9647C60.2024 30.9647 60.6032 31.0539 60.9503 31.2323C61.2975 31.4159 61.5706 31.6913 61.7697 32.0586C61.9637 32.4258 62.0607 32.8875 62.0607 33.4436V36.8039H61.3026V33.5223C61.3026 32.9137 61.1545 32.4521 60.8584 32.1373C60.5623 31.8277 60.1462 31.673 59.6102 31.673C59.2069 31.673 58.8572 31.7543 58.561 31.9169C58.2649 32.0848 58.0352 32.3235 57.8718 32.6331C57.7136 32.9478 57.6344 33.3256 57.6344 33.7663V36.8039H56.8763V28.6274H57.6344V32.6094L57.4813 32.3104C57.66 31.8907 57.9459 31.5628 58.339 31.3267C58.7321 31.0854 59.2018 30.9647 59.748 30.9647ZM64.7716 36.8039H64.0135V31.0198H64.7716V36.8039ZM64.3964 29.7449C64.2432 29.7449 64.113 29.6898 64.0058 29.5797C63.8986 29.4695 63.845 29.3357 63.845 29.1783C63.845 29.0262 63.8986 28.8976 64.0058 28.7927C64.113 28.6825 64.2432 28.6274 64.3964 28.6274C64.5547 28.6274 64.6874 28.6799 64.7946 28.7848C64.9018 28.8898 64.9554 29.0183 64.9554 29.1704C64.9554 29.3331 64.9044 29.4695 64.8023 29.5797C64.7002 29.6898 64.5649 29.7449 64.3964 29.7449ZM70.2317 36.8748C69.6651 36.8748 69.1418 36.7751 68.6619 36.5757C68.1769 36.3816 67.7582 36.1062 67.406 35.7494C67.0537 35.3979 66.778 34.9834 66.5789 34.506C66.3849 34.0338 66.2879 33.5144 66.2879 32.9478C66.2879 32.3812 66.3849 31.8618 66.5789 31.3897C66.778 30.9175 67.0537 30.503 67.406 30.1463C67.7582 29.7895 68.1743 29.5141 68.6542 29.32C69.1341 29.1258 69.6599 29.0288 70.2317 29.0288C70.7984 29.0288 71.3192 29.1258 71.794 29.32C72.2739 29.5141 72.6899 29.7869 73.0422 30.1384C73.3996 30.4899 73.6753 30.9044 73.8693 31.3818C74.0684 31.8592 74.1679 32.3812 74.1679 32.9478C74.1679 33.5144 74.0684 34.0365 73.8693 34.5139C73.6753 34.9913 73.3996 35.4058 73.0422 35.7573C72.6899 36.1088 72.2739 36.3816 71.794 36.5757C71.3192 36.7751 70.7984 36.8748 70.2317 36.8748ZM72.6899 38.3385C72.4602 38.3385 72.2381 38.3096 72.0237 38.2519C71.8093 38.189 71.5923 38.0945 71.3728 37.9686C71.1533 37.8375 70.9312 37.6696 70.7065 37.465C70.4768 37.2604 70.2266 37.0112 69.9561 36.7174L70.8214 36.497C71.0409 36.7698 71.2579 36.9928 71.4723 37.1659C71.6816 37.3443 71.8884 37.4755 72.0926 37.5594C72.2968 37.6434 72.4985 37.6853 72.6976 37.6853C73.2541 37.6853 73.7289 37.4519 74.122 36.9849L74.5125 37.4571C74.0377 38.0447 73.4302 38.3385 72.6899 38.3385ZM70.2317 36.1429C70.681 36.1429 71.0971 36.0642 71.48 35.9068C71.8629 35.7494 72.1947 35.5238 72.4755 35.23C72.7614 34.9362 72.9809 34.5952 73.1341 34.207C73.2924 33.824 73.3715 33.4043 73.3715 32.9478C73.3715 32.4862 73.2924 32.0612 73.1341 31.673C72.9809 31.29 72.7614 30.9542 72.4755 30.6657C72.1947 30.3719 71.8629 30.1463 71.48 29.9889C71.0971 29.8315 70.681 29.7528 70.2317 29.7528C69.7825 29.7528 69.3638 29.8315 68.9758 29.9889C68.5929 30.1463 68.2585 30.3719 67.9726 30.6657C67.6919 30.9542 67.4698 31.29 67.3064 31.673C67.1481 32.0612 67.069 32.4862 67.069 32.9478C67.069 33.4043 67.1481 33.824 67.3064 34.207C67.4698 34.5952 67.6919 34.9362 67.9726 35.23C68.2585 35.5238 68.5929 35.7494 68.9758 35.9068C69.3638 36.0642 69.7825 36.1429 70.2317 36.1429ZM80.838 36.8039H75.8374V29.0917H76.6338V36.1035H80.838V36.8039Z" fill="black"/>
</g>
<g clip-path="url(#clip1_209_48)">
<path d="M32.1178 24.4316H31.1226V14.7662H31.9414L38.4329 23.1587H38.0004V14.7662H38.983V24.4316H38.1642L31.6853 16.0348H32.1178V24.4316ZM44.8404 24.5007C44.107 24.5007 43.4618 24.341 42.9047 24.0217C42.3505 23.7053 41.9166 23.268 41.6031 22.71C41.2896 22.1548 41.1328 21.5176 41.1328 20.7985C41.1328 20.0793 41.2826 19.4436 41.5821 18.8913C41.8816 18.3389 42.2931 17.9046 42.8166 17.5881C43.3428 17.2717 43.9321 17.1135 44.5843 17.1135C45.2477 17.1135 45.837 17.2674 46.352 17.5752C46.8671 17.883 47.273 18.3159 47.5697 18.874C47.8636 19.4292 48.0106 20.0707 48.0106 20.7985C48.0106 20.8445 48.0092 20.8934 48.0064 20.9452C48.0008 20.9941 47.998 21.0458 47.998 21.1005H41.8592V20.3713H47.4857L47.112 20.6604C47.112 20.1368 47.0015 19.6694 46.7803 19.258C46.562 18.8495 46.2653 18.5302 45.8902 18.3001C45.5122 18.07 45.077 17.9549 44.5843 17.9549C44.1 17.9549 43.6661 18.07 43.2826 18.3001C42.8963 18.5302 42.5954 18.8524 42.3799 19.2666C42.1671 19.6809 42.0608 20.1541 42.0608 20.6863V20.8416C42.0608 21.3939 42.1783 21.8786 42.4135 22.2957C42.6514 22.7157 42.9831 23.0422 43.4086 23.2752C43.8341 23.5111 44.3198 23.6291 44.8656 23.6291C45.2967 23.6291 45.6984 23.5514 46.0707 23.396C46.443 23.2378 46.7635 22.9976 47.0323 22.6754L47.5697 23.3097C47.2562 23.6981 46.8643 23.9929 46.394 24.1943C45.9237 24.3985 45.4059 24.5007 44.8404 24.5007ZM49.7573 24.4316H48.6824L51.6678 20.4533L51.651 20.9365L48.8168 17.1825H49.8917L52.2179 20.2893L51.8148 20.272L54.1368 17.1825H55.1865L52.3229 20.9797L52.3397 20.4533L55.3461 24.4316H54.2586L51.8022 21.1178L52.1759 21.1695L49.7573 24.4316ZM59.1629 24.5007C58.4994 24.5007 57.9886 24.3166 57.6303 23.9484C57.272 23.5801 57.0928 23.0595 57.0928 22.3863V15.5774H58.0502V22.3303C58.0502 22.7531 58.1551 23.0796 58.3651 23.3097C58.575 23.5399 58.8773 23.6549 59.272 23.6549C59.6919 23.6549 60.0404 23.5312 60.3176 23.2839L60.6535 23.9872C60.4659 24.1627 60.2406 24.2921 59.9774 24.3755C59.7115 24.459 59.44 24.5007 59.1629 24.5007ZM60.2 17.9937H55.8331V17.1825H60.2V17.9937ZM63.4751 20.3281V19.4436H68.4466V20.3281H63.4751ZM63.5843 15.6464V24.4316H62.5892V14.7662H69.0387V15.6464H63.5843ZM71.8477 24.4316H70.8946V17.1825H71.8477V24.4316ZM71.3774 15.5774C71.1815 15.5774 71.0163 15.5083 70.882 15.3703C70.7476 15.2322 70.6804 15.0668 70.6804 14.874C70.6804 14.6813 70.7476 14.5188 70.882 14.3865C71.0163 14.2513 71.1815 14.1837 71.3774 14.1837C71.5734 14.1837 71.7386 14.2484 71.8729 14.3778C72.0073 14.5073 72.0745 14.6684 72.0745 14.8611C72.0745 15.0625 72.0101 15.2322 71.8813 15.3703C71.7526 15.5083 71.5846 15.5774 71.3774 15.5774ZM75.463 24.4316H74.5098V17.1825H75.421V19.1545L75.3286 18.8093C75.5246 18.257 75.8563 17.8355 76.3237 17.545C76.7884 17.2573 77.3651 17.1135 78.0537 17.1135V18.0628C78.0201 18.0628 77.9851 18.0613 77.9487 18.0585C77.9123 18.0527 77.8759 18.0498 77.8396 18.0498C77.0977 18.0498 76.5155 18.2828 76.0928 18.7489C75.6729 19.212 75.463 19.8722 75.463 20.7294V24.4316ZM82.7187 24.5007C81.9825 24.5007 81.3372 24.341 80.783 24.0217C80.2287 23.7053 79.7948 23.268 79.4813 22.71C79.1678 22.1548 79.011 21.5176 79.011 20.7985C79.011 20.0793 79.1608 19.4436 79.4603 18.8913C79.7598 18.3389 80.1713 17.9046 80.6948 17.5881C81.2183 17.2717 81.8075 17.1135 82.4625 17.1135C83.126 17.1135 83.7152 17.2674 84.2303 17.5752C84.7453 17.883 85.1498 18.3159 85.4438 18.874C85.7405 19.4292 85.8888 20.0707 85.8888 20.7985C85.8888 20.8445 85.886 20.8934 85.8804 20.9452C85.8776 20.9941 85.8762 21.0458 85.8762 21.1005H79.7332V20.3713H85.364L84.9903 20.6604C84.9903 20.1368 84.8797 19.6694 84.6586 19.258C84.4402 18.8495 84.1421 18.5302 83.7642 18.3001C83.3891 18.07 82.9552 17.9549 82.4625 17.9549C81.9783 17.9549 81.5444 18.07 81.1609 18.3001C80.7746 18.5302 80.4737 18.8524 80.2581 19.2666C80.0426 19.6809 79.9348 20.1541 79.9348 20.6863V20.8416C79.9348 21.3939 80.0538 21.8786 80.2917 22.2957C80.5296 22.7157 80.8614 23.0422 81.2868 23.2752C81.7123 23.5111 82.198 23.6291 82.7439 23.6291C83.1749 23.6291 83.5766 23.5514 83.9489 23.396C84.3184 23.2378 84.6376 22.9976 84.9063 22.6754L85.4438 23.3097C85.1302 23.6981 84.7383 23.9929 84.2681 24.1943C83.7978 24.3985 83.2813 24.5007 82.7187 24.5007ZM89.5419 24.4316H88.5509V15.6464H85.2422V14.7662H92.8506V15.6464H89.5419V24.4316ZM96.4911 24.5007C95.7548 24.5007 95.1096 24.341 94.5554 24.0217C94.0011 23.7053 93.5672 23.268 93.2537 22.71C92.9402 22.1548 92.7834 21.5176 92.7834 20.7985C92.7834 20.0793 92.9332 19.4436 93.2327 18.8913C93.5322 18.3389 93.9437 17.9046 94.4672 17.5881C94.9906 17.2717 95.5799 17.1135 96.2349 17.1135C96.8983 17.1135 97.4876 17.2674 98.0026 17.5752C98.5177 17.883 98.9222 18.3159 99.2161 18.874C99.5129 19.4292 99.6612 20.0707 99.6612 20.7985C99.6612 20.8445 99.6584 20.8934 99.6528 20.9452C99.65 20.9941 99.6486 21.0458 99.6486 21.1005H93.5056V20.3713H99.1364L98.7627 20.6604C98.7627 20.1368 98.6521 19.6694 98.4309 19.258C98.2126 18.8495 97.9145 18.5302 97.5366 18.3001C97.1615 18.07 96.7276 17.9549 96.2349 17.9549C95.7506 17.9549 95.3168 18.07 94.9333 18.3001C94.547 18.5302 94.246 18.8524 94.0305 19.2666C93.815 19.6809 93.7072 20.1541 93.7072 20.6863V20.8416C93.7072 21.3939 93.8261 21.8786 94.0641 22.2957C94.302 22.7157 94.6337 23.0422 95.0592 23.2752C95.4847 23.5111 95.9704 23.6291 96.5162 23.6291C96.9473 23.6291 97.349 23.5514 97.7213 23.396C98.0908 23.2378 98.4099 22.9976 98.6787 22.6754L99.2161 23.3097C98.9026 23.6981 98.5107 23.9929 98.0404 24.1943C97.5702 24.3985 97.0537 24.5007 96.4911 24.5007ZM106.741 24.4316H105.829V22.8265L105.787 22.5676V19.888C105.787 19.2695 105.619 18.7949 105.284 18.4641C104.948 18.1333 104.448 17.9679 103.785 17.9679C103.328 17.9679 102.894 18.0455 102.483 18.2009C102.071 18.3591 101.721 18.5662 101.433 18.8222L101.005 18.093C101.363 17.7794 101.793 17.5378 102.294 17.3681C102.795 17.1984 103.324 17.1135 103.881 17.1135C104.794 17.1135 105.499 17.3451 105.997 17.8082C106.493 18.2742 106.741 18.9804 106.741 19.9268V24.4316ZM103.398 24.5007C102.869 24.5007 102.41 24.4101 102.021 24.2288C101.629 24.0505 101.331 23.8016 101.127 23.4823C100.919 23.1659 100.816 22.8006 100.816 22.3863C100.816 22.0095 100.904 21.6672 101.08 21.3594C101.254 21.0487 101.54 20.7999 101.937 20.6129C102.337 20.4231 102.873 20.3281 103.545 20.3281H105.976V21.0617H103.57C102.89 21.0617 102.418 21.1854 102.155 21.4327C101.889 21.683 101.756 21.9923 101.756 22.3605C101.756 22.7747 101.913 23.1055 102.227 23.3529C102.54 23.6003 102.98 23.724 103.545 23.724C104.083 23.724 104.546 23.5974 104.935 23.3443C105.324 23.0911 105.608 22.7258 105.787 22.2483L106.002 22.9257C105.822 23.4032 105.512 23.7844 105.069 24.0692C104.627 24.3568 104.07 24.5007 103.398 24.5007ZM118.149 17.1135C118.723 17.1135 119.222 17.2257 119.648 17.4501C120.073 17.6744 120.405 18.0168 120.643 18.477C120.881 18.9373 121 19.5184 121 20.2203V24.4316H120.043V20.3152C120.043 19.55 119.866 18.9718 119.514 18.5806C119.161 18.1894 118.661 17.9937 118.015 17.9937C117.53 17.9937 117.112 18.0973 116.759 18.3044C116.406 18.5115 116.133 18.8107 115.94 19.2019C115.747 19.5931 115.651 20.0649 115.651 20.6172V24.4316H114.697V20.3152C114.697 19.55 114.518 18.9718 114.16 18.5806C113.802 18.1894 113.299 17.9937 112.653 17.9937C112.18 17.9937 111.764 18.0973 111.406 18.3044C111.047 18.5115 110.771 18.8107 110.578 19.2019C110.385 19.5931 110.289 20.0649 110.289 20.6172V24.4316H109.335V17.1825H110.251V19.1415L110.1 18.7963C110.315 18.2728 110.662 17.8614 111.141 17.5623C111.622 17.2631 112.189 17.1135 112.842 17.1135C113.533 17.1135 114.119 17.2904 114.601 17.6442C115.085 17.9981 115.399 18.5288 115.541 19.2364L115.168 19.0854C115.372 18.4957 115.737 18.0196 116.264 17.6572C116.787 17.2947 117.416 17.1135 118.149 17.1135Z" fill="black"/>
</g>
<path d="M29 25.9494C29 34.2616 22.5081 41 14.5 41C6.49187 41 0 34.2616 0 25.9494C0 17.6371 6.5 6.22785 17.5 0C14.5 10.3797 29 17.6371 29 25.9494Z" fill="#FB552A"/>
<path d="M29 25.9494C29 34.2616 22.5081 41 14.5 41C6.49187 41 0 34.2616 0 25.9494C0 17.6371 13.5 18.1646 17.5 0C14.5 10.3797 29 17.6371 29 25.9494Z" fill="url(#paint0_linear_209_48)"/>
<path d="M29 25.9494C29 34.2616 22.5081 41 14.5 41C6.49187 41 0 34.2616 0 25.9494C0 17.6371 6.5 6.22785 17.5 0C14.5 10.3797 29 17.6371 29 25.9494Z" fill="#FB552A"/>
<path d="M29 25.9494C29 34.2616 22.5081 41 14.5 41C6.49187 41 0 34.2616 0 25.9494C0 17.6371 13.5 18.1646 17.5 0C14.5 10.3797 29 17.6371 29 25.9494Z" fill="url(#paint1_linear_209_48)"/>
<path d="M24 26C24 31.5228 19.7467 36 14.5 36C9.25329 36 5 31.5228 5 26C5 20.4772 9.25329 16 14.5 16C19.7467 16 24 20.4772 24 26Z" fill="url(#paint2_linear_209_48)"/>
<path d="M22.087 25.7925C22.087 30.066 18.7159 33.5303 14.5574 33.5303C10.3988 33.5303 7.02769 30.066 7.02769 25.7925C7.02769 21.5191 10.3988 18.0547 14.5574 18.0547C18.7159 18.0547 22.087 21.5191 22.087 25.7925Z" fill="#FFFEFE"/>
<defs>
<linearGradient id="paint0_linear_209_48" x1="24" y1="33.2152" x2="22.3848" y2="15.0609" gradientUnits="userSpaceOnUse">
<stop stop-color="#DC1379"/>
<stop offset="1" stop-color="#FC7A22"/>
</linearGradient>
<linearGradient id="paint1_linear_209_48" x1="24" y1="33.2152" x2="22.3848" y2="15.0609" gradientUnits="userSpaceOnUse">
<stop stop-color="#DC1379"/>
<stop offset="1" stop-color="#FC7A22"/>
</linearGradient>
<linearGradient id="paint2_linear_209_48" x1="17.5" y1="28.6316" x2="15.8434" y2="19.7133" gradientUnits="userSpaceOnUse">
<stop stop-color="#BC0F6D"/>
<stop offset="1" stop-color="#F5173A"/>
</linearGradient>
<clipPath id="clip0_209_48">
<rect width="49.7154" height="10.317" fill="white" transform="translate(31.1226 28.6274)"/>
</clipPath>
<clipPath id="clip1_209_48">
<rect width="89.8774" height="10.317" fill="white" transform="translate(31.1226 14.1837)"/>
</clipPath>
</defs>
</svg>
