<svg width="48" height="48" viewBox="0 0 48 48" fill="none" xmlns="http://www.w3.org/2000/svg">
<path fill-rule="evenodd" clip-rule="evenodd" d="M24 42C26.3638 42 28.7044 41.5344 30.8883 40.6298C33.0722 39.7252 35.0565 38.3994 36.7279 36.7279C38.3994 35.0565 39.7252 33.0722 40.6298 30.8883C41.5344 28.7044 42 26.3638 42 24C42 21.6362 41.5344 19.2956 40.6298 17.1117C39.7252 14.9278 38.3994 12.9435 36.7279 11.2721C35.0565 9.60062 33.0722 8.27475 30.8883 7.37017C28.7044 6.46558 26.3638 6 24 6C19.2261 6 14.6477 7.89642 11.2721 11.2721C7.89642 14.6477 6 19.2261 6 24C6 28.7739 7.89642 33.3523 11.2721 36.7279C14.6477 40.1036 19.2261 42 24 42ZM24 46C36.15 46 46 36.15 46 24C46 11.85 36.15 2 24 2C11.85 2 2 11.85 2 24C2 36.15 11.85 46 24 46Z" fill="black"/>
<path d="M24 42C26.3638 42 28.7044 41.5344 30.8883 40.6298C33.0722 39.7252 35.0565 38.3994 36.7279 36.7279C38.3994 35.0565 39.7252 33.0722 40.6298 30.8883C41.5344 28.7044 42 26.3638 42 24C42 21.6362 41.5344 19.2956 40.6298 17.1117C39.7252 14.9278 38.3994 12.9435 36.7279 11.2721C35.0565 9.60062 33.0722 8.27475 30.8883 7.37017C28.7044 6.46558 26.3638 6 24 6C19.2261 6 14.6477 7.89642 11.2721 11.2721C7.89642 14.6477 6 19.2261 6 24C6 28.7739 7.89642 33.3523 11.2721 36.7279C14.6477 40.1036 19.2261 42 24 42Z" fill="white"/>
<path d="M32 24L20 32.66V15.34L32 24Z" fill="black"/>
</svg>
