<svg width="48" height="48" viewBox="0 0 48 48" fill="none" xmlns="http://www.w3.org/2000/svg">
<path fill-rule="evenodd" clip-rule="evenodd" d="M38 6H10C8.93913 6 7.92172 6.42143 7.17157 7.17157C6.42143 7.92172 6 8.93913 6 10V38C6 39.0609 6.42143 40.0783 7.17157 40.8284C7.92172 41.5786 8.93913 42 10 42H38C39.0609 42 40.0783 41.5786 40.8284 40.8284C41.5786 40.0783 42 39.0609 42 38V10C42 8.93913 41.5786 7.92172 40.8284 7.17157C40.0783 6.42143 39.0609 6 38 6ZM10 2C7.87827 2 5.84344 2.84285 4.34315 4.34315C2.84285 5.84344 2 7.87827 2 10V38C2 40.1217 2.84285 42.1566 4.34315 43.6569C5.84344 45.1571 7.87827 46 10 46H38C40.1217 46 42.1566 45.1571 43.6569 43.6569C45.1571 42.1566 46 40.1217 46 38V10C46 7.87827 45.1571 5.84344 43.6569 4.34315C42.1566 2.84285 40.1217 2 38 2H10Z" fill="black"/>
<path d="M32 24L20 32.66V15.34L32 24Z" fill="black"/>
</svg>
